<svg width="512" height="512" viewBox="0 0 512 512" fill="none" xmlns="http://www.w3.org/2000/svg">
<rect width="512" height="512" rx="80" fill="#0D6EFD"/>
<path d="M241.358 383H151.124V128.455H242.104C267.707 128.455 289.748 133.55 308.226 143.742C326.704 153.851 340.914 168.393 350.857 187.368C360.883 206.343 365.896 229.046 365.896 255.479C365.896 281.994 360.883 304.78 350.857 323.838C340.914 342.896 326.621 357.521 307.977 367.712C289.417 377.904 267.21 383 241.358 383ZM204.941 336.888H239.121C255.03 336.888 268.412 334.071 279.266 328.437C290.204 322.719 298.407 313.895 303.876 301.963C309.427 289.948 312.203 274.454 312.203 255.479C312.203 236.67 309.427 221.299 303.876 209.367C298.407 197.435 290.245 188.652 279.391 183.018C268.536 177.383 255.154 174.566 239.245 174.566H204.941V336.888Z" fill="white"/>
</svg>
